<svg xmlns="http://www.w3.org/2000/svg" viewBox="0 0 39.38 64.44"><defs><style>.cls-1{fill:#fff;}</style></defs><title>Asset 1</title><g id="Layer_2" data-name="Layer 2"><g id="Layer_1-2" data-name="Layer 1"><path class="cls-1" d="M0,0V7.16H3.58V21.48H7.16v3.58h3.58v3.58h3.58V35.8H10.74v3.58H7.16V43H3.58V57.28H0v7.16H39.38V57.28H35.8V43H32.22V39.38H28.64V35.8H25.06V28.64h3.58V25.06h3.58V21.48H35.8V7.16h3.58V0Z"/><rect x="14.32" y="28.64" width="3.58" height="3.58"/><rect x="14.32" y="32.22" width="3.58" height="3.58"/><rect x="10.74" y="35.8" width="3.58" height="3.58"/><rect x="7.16" y="39.38" width="3.58" height="3.58"/><rect x="10.74" y="25.06" width="3.58" height="3.58"/><rect x="7.16" y="21.48" width="3.58" height="3.58"/><rect x="3.58" y="7.16" width="3.58" height="14.32"/><polygon points="0 0 0 3.58 0 7.16 39.38 7.16 39.38 3.58 39.38 0 0 0"/><rect x="21.48" y="28.64" width="3.58" height="3.58"/><rect x="21.48" y="32.22" width="3.58" height="3.58"/><rect x="25.06" y="35.8" width="3.58" height="3.58"/><rect x="28.64" y="39.38" width="3.58" height="3.58"/><rect x="25.06" y="25.06" width="3.58" height="3.58"/><rect x="17.9" y="21.48" width="3.58" height="3.58"/><rect x="14.32" y="17.9" width="3.58" height="3.58"/><rect x="21.48" y="17.9" width="3.58" height="3.58"/><rect x="28.64" y="21.48" width="3.58" height="3.58"/><rect x="32.22" y="7.16" width="3.58" height="14.32"/><rect x="3.58" y="42.96" width="3.58" height="14.32"/><polygon points="0 57.28 0 60.86 0 64.44 39.38 64.44 39.38 60.86 39.38 57.28 0 57.28"/><polygon points="25.06 50.12 25.06 46.54 21.48 46.54 21.48 42.96 17.9 42.96 17.9 46.54 14.32 46.54 14.32 50.12 10.74 50.12 10.74 53.7 28.64 53.7 28.64 50.12 25.06 50.12"/><rect x="32.22" y="42.96" width="3.58" height="14.32"/></g></g></svg>